<?xml version="1.0" encoding="UTF-8" standalone="no"?>
<!-- Created with Inkscape (http://www.inkscape.org/) -->

<svg
   width="159.52444mm"
   height="152.90823mm"
   viewBox="0 0 159.52444 152.90823"
   version="1.1"
   id="svg1"
   xml:space="preserve"
   xmlns:inkscape="http://www.inkscape.org/namespaces/inkscape"
   xmlns:sodipodi="http://sodipodi.sourceforge.net/DTD/sodipodi-0.dtd"
   xmlns="http://www.w3.org/2000/svg"
   xmlns:svg="http://www.w3.org/2000/svg"><sodipodi:namedview
     id="namedview1"
     pagecolor="#ffffff"
     bordercolor="#999999"
     borderopacity="1"
     inkscape:showpageshadow="2"
     inkscape:pageopacity="0"
     inkscape:pagecheckerboard="0"
     inkscape:deskcolor="#d1d1d1"
     inkscape:document-units="mm"><inkscape:page
       x="1.1600667e-05"
       y="324.19482"
       width="159.52444"
       height="152.90823"
       id="page5"
       margin="0"
       bleed="0"
       inkscape:export-filename="n=1.png"
       inkscape:export-xdpi="96"
       inkscape:export-ydpi="96" /><inkscape:page
       x="1.1600667e-05"
       y="165.40552"
       width="159.52444"
       height="152.90823"
       id="page6"
       margin="0"
       bleed="0" /></sodipodi:namedview><defs
     id="defs1" /><g
     inkscape:label="Layer 1"
     inkscape:groupmode="layer"
     id="layer1"
     transform="translate(-220.00001,324.19485)"><rect
       style="opacity:1;fill:#2b262c;fill-opacity:1;fill-rule:evenodd;stroke:#000000;stroke-width:1.2;stroke-linecap:round;stroke-linejoin:round;stroke-dasharray:none;stroke-opacity:1;paint-order:stroke markers fill"
       id="rect6"
       width="170.2652"
       height="163.38983"
       x="214.62964"
       y="-1.3721403" /><rect
       style="fill:#f5f1e8;fill-opacity:1;fill-rule:evenodd;stroke:#000000;stroke-width:1.2;stroke-linecap:round;stroke-linejoin:round;stroke-dasharray:none;stroke-opacity:1;paint-order:stroke markers fill"
       id="rect6-8"
       width="170.2652"
       height="163.38983"
       x="214.62964"
       y="-165.96198" /><g
       id="g22"
       transform="matrix(0.92797217,0,0,0.92797217,72.021842,-288.75852)"><path
         style="fill:#f5f1e8;fill-opacity:1;stroke:none;stroke-width:3.05498;stroke-dasharray:none;stroke-opacity:1"
         d="m 233.12425,448.81051 c -1.35717,-1.49966 -1.44243,-2.97141 -1.01889,-17.58311 0.33722,-11.63432 0.20478,-16.13651 -0.49024,-16.64934 -0.52386,-0.38661 -3.07829,-1.34735 -5.67653,-2.13501 -5.24474,-1.59 -7.65849,-4.16853 -6.86423,-7.33301 0.88874,-3.54107 3.6623,-4.21075 10.63314,-2.56738 7.1206,1.6787 7.93676,1.36465 9.4331,-3.62971 1.19283,-3.98125 2.80129,-5.35305 6.27666,-5.35305 3.49191,0 5.08414,1.37279 6.30035,5.43211 1.39048,4.64102 3.4095,5.34255 10.13583,3.52184 6.20162,-1.67869 8.84602,-1.04628 9.69028,2.31743 1.00799,4.01617 -0.54641,5.89268 -6.18002,7.46061 -7.61208,2.11857 -7.49454,1.92329 -6.9113,11.48193 0.27604,4.52652 0.58541,11.67968 0.68712,15.89592 0.17288,7.16413 0.0592,7.7677 -1.73635,9.22163 -1.05669,0.85565 -2.77582,1.55576 -3.82021,1.55576 -2.25425,0 -5.29676,-3.5372 -5.29676,-6.15793 0,-1.01109 -0.52971,-2.27796 -1.17714,-2.81529 -1.84314,-1.52968 -4.56075,0.32325 -4.56075,3.10957 0,4.95551 -6.23421,7.75174 -9.42406,4.22703 z m 5.97899,-1.8517 c 0.46979,-0.56608 1.11912,-2.13374 1.44293,-3.48373 0.85461,-3.56267 1.87245,-4.50377 4.87109,-4.50377 3.07909,0 4.07741,0.95256 5.08386,4.85069 0.89131,3.45229 2.92254,4.94966 4.95748,3.6545 1.30467,-0.83038 1.40594,-2.36783 1.11924,-16.99264 -0.23204,-11.8352 -0.0517,-16.39728 0.68344,-17.28296 0.54926,-0.66181 3.08873,-1.80866 5.64328,-2.54854 5.41052,-1.56707 6.69387,-2.44804 6.69387,-4.59517 0,-2.3621 -1.95324,-2.65939 -7.80874,-1.18855 -4.67808,1.1751 -5.64781,1.194 -8.12624,0.15862 -2.20543,-0.92149 -3.03404,-1.90941 -3.83013,-4.56657 -1.93019,-6.44237 -5.91681,-6.36743 -8.97563,0.16885 -2.50502,5.35277 -4.64378,6.08785 -12.00569,4.12618 -4.86851,-1.29729 -5.24447,-1.29491 -6.58073,0.0412 -2.01317,2.01317 -0.53526,3.99749 3.95823,5.31458 1.98739,0.5825 4.53559,1.52258 5.66271,2.089 l 2.04922,1.0299 v 16.35424 c 0,8.99485 0.29835,16.81534 0.66318,17.37888 0.85504,1.32115 3.40052,1.31855 4.49863,-0.003 z M 183.17856,422.9286 c -1.50121,-1.50121 -1.49328,0.096 -0.17133,-34.54773 0.99306,-26.02653 1.03594,-26.43938 2.95734,-28.48461 2.01195,-2.14164 6.78948,-2.90956 7.81166,-1.25562 1.01843,1.64787 3.43047,0.74336 6.55761,-2.4591 3.81557,-3.90755 7.67157,-4.48141 9.78991,-1.45703 2.15388,3.07506 1.48841,4.69155 -4.45454,10.82055 -5.04303,5.20087 -5.83385,6.44438 -6.59096,10.36383 -0.47317,2.44959 -0.63532,6.14005 -0.36033,8.20102 0.42753,3.20441 1.26345,4.52971 5.7712,9.14957 4.05573,4.1566 5.27129,5.95677 5.27129,7.80648 0,3.37236 -2.47977,5.38995 -6.10449,4.96679 l -2.89879,-0.33841 0.51515,7.86105 c 0.44334,6.76494 0.31994,8.05625 -0.88496,9.26118 -1.88543,1.88544 -4.47856,1.76411 -6.68951,-0.31293 l -1.8235,-1.71309 -1.71305,1.71309 c -2.03058,2.03054 -5.18504,2.22253 -6.98258,0.42496 z m 6.08918,-2.83924 c 0,-1.41297 4.35606,-0.83468 6.10759,0.8108 3.05183,2.86706 4.09567,1.06283 3.86068,-6.67296 -0.11401,-3.7479 -0.36613,-7.36767 -0.56057,-8.04392 -0.19456,-0.67625 -0.009,-1.77777 0.41056,-2.44782 0.61621,-0.98247 1.22628,-1.04378 3.15214,-0.31684 1.49306,0.56354 2.88934,0.62085 3.72554,0.15304 2.55096,-1.4276 1.45281,-4.19524 -3.74577,-9.44041 -5.03822,-5.08343 -5.08624,-5.17603 -5.42282,-10.46192 -0.64279,-10.09476 0.13167,-12.35289 6.48249,-18.90254 5.97558,-6.16267 6.72978,-7.9565 3.96691,-9.43515 -1.46911,-0.78623 -2.2322,-0.40619 -5.70277,2.84014 -4.29025,4.01301 -5.94571,4.47995 -8.79852,2.48178 -2.04597,-1.43308 -4.4893,-0.61472 -5.87058,1.9662 -0.43631,0.81526 -1.24302,14.06749 -1.79262,29.4494 -1.06877,29.9109 -0.92341,31.54663 2.63443,29.64251 0.85432,-0.45721 1.55331,-1.18718 1.55331,-1.62215 z m 101.18178,2.72938 c -1.21777,-1.21773 -1.32595,-2.51177 -0.83927,-10.03933 0.44637,-6.90411 0.35308,-8.4358 -0.46394,-7.61877 -1.66448,1.66447 -5.37617,1.22801 -6.79605,-0.79915 -2.14499,-3.0624 -1.48447,-4.79847 3.97844,-10.45708 4.48828,-4.64905 5.33976,-6.01158 5.83954,-9.34453 0.33103,-2.20748 0.18434,-5.89748 -0.33778,-8.49742 -0.81626,-4.06438 -1.58597,-5.27938 -6.65927,-10.51148 -5.9486,-6.13483 -6.61444,-7.75103 -4.46031,-10.82647 2.12749,-3.03739 5.82443,-2.43484 9.95934,1.6233 3.38274,3.31988 3.60939,3.40926 6.237,2.45911 3.90287,-1.4113 5.3029,-1.23685 7.47062,0.93088 2.46515,2.46511 2.76932,5.17088 3.33239,29.64161 0.24909,10.82005 0.66652,22.16925 0.92791,25.22046 0.37155,4.33716 0.18434,5.9916 -0.85786,7.58225 -1.66974,2.54836 -4.75004,2.65707 -6.99547,0.24692 l -1.66556,-1.78775 -1.90293,1.78775 c -2.28366,2.14536 -4.86266,2.29394 -6.7668,0.38977 z m 5.15967,-1.88084 c 0.77204,-0.90167 2.18672,-1.63941 3.14374,-1.63941 0.95703,0 2.40768,0.73774 3.22368,1.63941 1.6603,1.83462 1.98287,1.91598 3.58108,0.90352 1.28201,-0.81213 1.29822,-5.6711 0.12578,-37.7286 -0.65438,-17.89405 -0.90173,-20.24544 -2.32815,-22.13192 -1.59272,-2.10645 -2.28669,-2.2221 -7.33232,-1.22207 -2.34259,0.46428 -3.12903,0.11122 -6.33437,-2.84329 -3.84122,-3.54074 -5.1878,-4.0132 -6.8112,-2.38977 -1.79943,1.79943 -1.02435,3.5408 3.58786,8.06105 6.62441,6.49234 7.25775,7.99717 7.28827,17.31652 l 0.0248,7.91795 -5.57899,5.78 c -4.95058,5.12894 -5.47543,5.97344 -4.65964,7.49773 1.15673,2.16138 3.1005,2.94339 4.3099,1.734 0.51072,-0.51069 1.64886,-0.92853 2.52924,-0.92853 1.52057,0 1.57528,0.44457 1.09266,8.87978 -0.35947,6.28239 -0.22833,9.15961 0.44854,9.83641 1.33856,1.33856 2.0737,1.20246 3.68787,-0.68278 z M 234.5384,383.86265 c -2.65425,-1.27916 -2.92009,-3.27024 -2.46037,-18.42689 l 0.40988,-13.51288 -2.55205,0.54279 c -7.00278,1.48934 -7.41374,1.45985 -9.41482,-0.67569 -1.41948,-1.5149 -1.80649,-2.62544 -1.43324,-4.11261 0.81176,-3.23428 2.50641,-4.33834 8.35212,-5.44135 6.3116,-1.1909 10.50662,-4.23561 11.29973,-8.20124 0.27356,-1.3674 1.40997,-3.39894 2.52556,-4.5145 3.73034,-3.73034 8.69712,-1.96288 10.39332,3.69852 1.44841,4.83434 4.53571,7.26724 11.48502,9.05058 8.65139,2.22015 10.93146,5.41158 6.81039,9.53265 -1.6558,1.6558 -2.6155,1.99684 -4.50836,1.60214 -1.3226,-0.27573 -3.50142,-0.73 -4.84178,-1.00935 l -2.43704,-0.5079 0.42022,10.95909 c 0.23112,6.0275 0.57092,12.18262 0.75504,13.67806 0.67157,5.45433 -3.39714,9.34834 -7.95653,7.61487 -2.90123,-1.10307 -3.4376,-2.1817 -3.91575,-7.87473 -0.35563,-4.23406 -0.64112,-4.91821 -2.05248,-4.91821 -1.28657,0 -1.68524,0.61748 -1.85241,2.86895 -0.49346,6.6461 -1.05697,8.17581 -3.47171,9.42452 -2.74629,1.42016 -3.04606,1.43221 -5.55474,0.22306 z m 4.78499,-2.29924 c 1.27062,-0.68 1.58551,-1.73821 1.58551,-5.32805 0,-3.38657 0.39999,-4.87951 1.63941,-6.11893 1.97295,-1.97295 3.1478,-2.04978 5.55551,-0.36337 1.47029,1.02983 1.8218,2.06825 1.8218,5.38196 0,2.25825 0.38184,4.81937 0.84853,5.69142 1.02277,1.91102 3.48091,2.05716 5.22733,0.31074 1.10146,-1.10146 1.2028,-3.34292 0.74537,-16.48852 l -0.52944,-15.21375 3.61664,0.67148 c 1.98916,0.36929 4.90764,0.68848 6.48559,0.70927 2.64963,0.035 2.86895,-0.15026 2.86895,-2.42131 0,-2.39909 -0.16389,-2.49909 -6.72117,-4.09848 -7.66918,-1.87065 -10.83724,-4.26172 -12.55903,-9.47877 -1.28065,-3.88044 -2.54888,-5.08417 -4.97707,-4.72401 -1.89358,0.28099 -2.05046,0.49079 -4.79601,6.41563 -2.20333,4.75469 -4.44265,6.30162 -11.16057,7.70982 -6.2716,1.31464 -8.17992,2.72374 -7.32721,5.4104 0.61578,1.94014 0.80848,1.94643 9.76286,0.31985 l 3.20686,-0.58254 -0.50787,15.26974 c -0.43472,13.07167 -0.32747,15.4501 0.74528,16.52284 1.47536,1.47537 2.32433,1.55224 4.46873,0.40458 z"
         id="path11-5"
         sodipodi:nodetypes="sssssssssssssssssssscsssssssssssssssscssccsssssssssssscssscssssssscssssssssssssssssssssssssssssscssscsssssssssccssssssccsscssssssssssscssssssssssssssssscsssssssssscsss" /><path
         style="opacity:1;fill:#f5f1e8;fill-opacity:1;fill-rule:evenodd;stroke:#f5f1e8;stroke-width:3.77953;stroke-linecap:round;stroke-linejoin:round;stroke-dasharray:none;stroke-opacity:1;paint-order:stroke markers fill"
         d="m 699.88406,1591.1148 c -4.47669,-11.2889 3.02742,-213.0625 8.28963,-222.8951 0.94243,-1.7609 4.20386,-4.2422 7.24762,-5.514 5.18002,-2.1643 6.07972,-2.0542 14.06179,1.7219 4.69022,2.2189 9.32179,4.0343 10.29237,4.0343 3.77978,0 12.41939,-5.6177 23.52141,-15.2942 13.12249,-11.4375 18.9777,-13.0038 23.3973,-6.2586 2.25818,3.4464 2.27269,4.3285 0.13905,8.4545 -1.3102,2.5337 -8.57147,11.3394 -16.13616,19.5684 -26.13311,28.4279 -28.51703,34.3243 -27.4116,67.8005 0.86646,26.2398 1.20922,27.0441 20.06033,47.075 15.85401,16.8462 20.25796,23.9014 18.72701,30.0013 -1.38412,5.5147 -6.9321,6.8085 -17.90675,4.1757 -12.142,-2.9128 -13.86644,-0.9863 -13.07305,14.6049 0.32595,6.4054 0.59621,20.7303 0.60057,31.8332 0.007,16.7075 -0.44671,20.6413 -2.62968,22.8221 -2.45762,2.4552 -3.12637,2.284 -9.79973,-2.5084 -4.61111,-3.3115 -9.72189,-5.432 -14.34883,-5.9535 -6.66315,-0.751 -7.58204,-0.3909 -12.61332,4.9438 -6.48869,6.88 -10.08088,7.2816 -12.41796,1.3882 z"
         id="path19"
         transform="scale(0.26458333)" /><path
         style="opacity:1;fill:#f5f1e8;fill-opacity:1;fill-rule:evenodd;stroke:#f5f1e8;stroke-width:3.77953;stroke-linecap:round;stroke-linejoin:round;stroke-dasharray:none;stroke-opacity:1;paint-order:stroke markers fill"
         d="m 889.64427,1440.9393 -4.58916,-3.9567 0.20542,-33.0697 c 0.11299,-18.1883 0.69426,-44.592 1.29172,-58.6748 l 1.0863,-25.6051 -16.30664,2.9823 c -19.27799,3.5257 -29.43164,4.1205 -31.69533,1.8568 -2.95663,-2.9566 -0.90949,-11.8391 3.48037,-15.1012 2.25532,-1.676 12.05898,-5.1156 21.78593,-7.6437 29.17364,-7.5824 33.71132,-11.0198 45.34464,-34.3495 3.99403,-8.0097 8.86995,-15.6895 10.83537,-17.0661 8.69675,-6.0914 16.59624,-0.908 22.82985,14.9805 8.16476,20.8106 17.8113,28.11 48.30151,36.5491 10.04125,2.7792 19.50695,5.7147 21.03495,6.5232 3.8334,2.0285 3.955,15.2944 0.1535,16.7531 -2.3847,0.9151 -24.13244,-1.1374 -39.10341,-3.6905 l -6.00838,-1.0247 1.09613,55.4812 c 0.60288,30.5146 0.60892,57.4224 0.0134,59.795 -1.50263,5.987 -10.4321,10.2606 -16.07084,7.6914 -5.29407,-2.4121 -6.73756,-6.6294 -8.06569,-23.5642 -1.30054,-16.5831 -3.39685,-21.4374 -10.7681,-24.9353 -7.5839,-3.5988 -9.62656,-3.3056 -16.00852,2.2979 -6.587,5.7834 -8.80431,12.6156 -8.81643,27.166 -0.007,8.7704 -0.63298,11.3258 -3.58083,14.625 -5.40791,6.0523 -10.94883,6.7194 -16.44578,1.98 z"
         id="path20"
         transform="scale(0.26458333)" /><path
         style="opacity:1;fill:#f5f1e8;fill-opacity:1;fill-rule:evenodd;stroke:#f5f1e8;stroke-width:3.77953;stroke-linecap:round;stroke-linejoin:round;stroke-dasharray:none;stroke-opacity:1;paint-order:stroke markers fill"
         d="m 1103.1658,1591.9756 c -1.3681,-2.5561 -1.5834,-11.7217 -0.7957,-33.8615 0.5941,-16.6962 0.6222,-31.5501 0.062,-33.0087 -1.2703,-3.3104 -8.4841,-3.4931 -12.6779,-0.321 -4.9073,3.7117 -11.1545,2.9761 -14.873,-1.7512 -5.9199,-7.5259 -4.6156,-10.1185 16.554,-32.9066 l 19.8443,-21.3615 -0.049,-19.5914 c -0.062,-25.0135 -2.1318,-40.7884 -6.4643,-49.2808 -1.888,-3.7007 -9.2636,-12.8224 -16.3902,-20.2705 -21.9075,-22.8953 -25.3496,-29.4532 -18.6444,-35.5214 5.6044,-5.0719 10.1445,-3.3523 25.5233,9.6677 5.5934,4.7354 11.7517,9.2114 13.6852,9.9465 2.0125,0.7651 8.2385,0.6055 14.5633,-0.3735 25.4311,-3.9364 27.5146,0.9465 30.6363,71.797 0.9041,20.519 2.1,63.7565 2.6575,96.0835 0.9377,54.3626 0.808,58.982 -1.7273,61.5173 -3.6688,3.6688 -7.7249,3.4564 -11.3928,-0.5966 -8.2162,-9.0788 -18.9693,-9.6414 -26.8601,-1.4053 -5.4048,5.6414 -11.0224,6.1509 -13.6516,1.238 z"
         id="path21"
         transform="scale(0.26458333)" /><path
         style="opacity:1;fill:#f5f1e8;fill-opacity:1;fill-rule:evenodd;stroke:#f5f1e8;stroke-width:3.77953;stroke-linecap:round;stroke-linejoin:round;stroke-dasharray:none;stroke-opacity:1;paint-order:stroke markers fill"
         d="m 889.05134,1690.7836 c -2.95666,-1.8695 -4.48307,-31.0428 -4.66362,-89.133 l -0.12638,-40.6624 -9.12837,-4.0081 c -5.02061,-2.2044 -13.05754,-5.2475 -17.85986,-6.7624 -17.7526,-5.6001 -23.09681,-11.5098 -17.19419,-19.0138 3.87036,-4.9204 8.84559,-5.0812 25.1319,-0.8126 6.54862,1.7163 16.08799,3.1329 21.19862,3.1478 8.69713,0.025 9.65109,-0.3539 14.90017,-5.926 3.08447,-3.2744 8.28141,-10.5969 11.54876,-16.2724 3.36702,-5.8486 8.04655,-11.5617 10.80171,-13.1874 4.42387,-2.6105 5.27745,-2.6532 9.49052,-0.4745 4.14615,2.144 11.43736,14.7585 11.43736,19.7877 0,3.123 8.44543,11.5067 13.87799,13.7766 7.65301,3.1976 14.18962,2.9766 34.97171,-1.1824 20.04344,-4.0112 23.05534,-3.4168 23.87014,4.711 0.6862,6.8446 -3.3749,9.9764 -19.85428,15.3115 -17.08622,5.5315 -25.04763,9.4369 -26.87219,13.1819 -0.76255,1.5652 -1.40326,28.2069 -1.4238,59.2036 -0.0433,65.2856 0.0144,64.0917 -3.25114,67.3572 -6.33594,6.336 -14.9122,-0.094 -19.03341,-14.2708 -3.76728,-12.959 -7.86542,-16.5729 -18.79353,-16.5729 -11.2134,0 -15.3652,3.6262 -19.82616,17.3163 -1.82309,5.5948 -4.50584,11.4886 -5.96166,13.0973 -2.83497,3.1326 -9.39366,3.82 -13.24029,1.3878 z"
         id="path22"
         transform="scale(0.26458333)" /></g><g
       id="g27"
       transform="matrix(0.9346515,0,0,0.9346515,75.358816,-440.90439)"
       style="fill:#2b262c;fill-opacity:1"><path
         style="fill:#2b262c;fill-opacity:1;stroke:none;stroke-width:3.05498;stroke-dasharray:none;stroke-opacity:1"
         d="m 233.12425,448.81051 c -1.35717,-1.49966 -1.44243,-2.97141 -1.01889,-17.58311 0.33722,-11.63432 0.20478,-16.13651 -0.49024,-16.64934 -0.52386,-0.38661 -3.07829,-1.34735 -5.67653,-2.13501 -5.24474,-1.59 -7.65849,-4.16853 -6.86423,-7.33301 0.88874,-3.54107 3.6623,-4.21075 10.63314,-2.56738 7.1206,1.6787 7.93676,1.36465 9.4331,-3.62971 1.19283,-3.98125 2.80129,-5.35305 6.27666,-5.35305 3.49191,0 5.08414,1.37279 6.30035,5.43211 1.39048,4.64102 3.4095,5.34255 10.13583,3.52184 6.20162,-1.67869 8.84602,-1.04628 9.69028,2.31743 1.00799,4.01617 -0.54641,5.89268 -6.18002,7.46061 -7.61208,2.11857 -7.49454,1.92329 -6.9113,11.48193 0.27604,4.52652 0.58541,11.67968 0.68712,15.89592 0.17288,7.16413 0.0592,7.7677 -1.73635,9.22163 -1.05669,0.85565 -2.77582,1.55576 -3.82021,1.55576 -2.25425,0 -5.29676,-3.5372 -5.29676,-6.15793 0,-1.01109 -0.52971,-2.27796 -1.17714,-2.81529 -1.84314,-1.52968 -4.56075,0.32325 -4.56075,3.10957 0,4.95551 -6.23421,7.75174 -9.42406,4.22703 z m 5.97899,-1.8517 c 0.46979,-0.56608 1.11912,-2.13374 1.44293,-3.48373 0.85461,-3.56267 1.87245,-4.50377 4.87109,-4.50377 3.07909,0 4.07741,0.95256 5.08386,4.85069 0.89131,3.45229 2.92254,4.94966 4.95748,3.6545 1.30467,-0.83038 1.40594,-2.36783 1.11924,-16.99264 -0.23204,-11.8352 -0.0517,-16.39728 0.68344,-17.28296 0.54926,-0.66181 3.08873,-1.80866 5.64328,-2.54854 5.41052,-1.56707 6.69387,-2.44804 6.69387,-4.59517 0,-2.3621 -1.95324,-2.65939 -7.80874,-1.18855 -4.67808,1.1751 -5.64781,1.194 -8.12624,0.15862 -2.20543,-0.92149 -3.03404,-1.90941 -3.83013,-4.56657 -1.93019,-6.44237 -5.91681,-6.36743 -8.97563,0.16885 -2.50502,5.35277 -4.64378,6.08785 -12.00569,4.12618 -4.86851,-1.29729 -5.24447,-1.29491 -6.58073,0.0412 -2.01317,2.01317 -0.53526,3.99749 3.95823,5.31458 1.98739,0.5825 4.53559,1.52258 5.66271,2.089 l 2.04922,1.0299 v 16.35424 c 0,8.99485 0.29835,16.81534 0.66318,17.37888 0.85504,1.32115 3.40052,1.31855 4.49863,-0.003 z M 183.17856,422.9286 c -1.50121,-1.50121 -1.49328,0.096 -0.17133,-34.54773 0.99306,-26.02653 1.03594,-26.43938 2.95734,-28.48461 2.01195,-2.14164 6.78948,-2.90956 7.81166,-1.25562 1.01843,1.64787 3.43047,0.74336 6.55761,-2.4591 3.81557,-3.90755 7.67157,-4.48141 9.78991,-1.45703 2.15388,3.07506 1.48841,4.69155 -4.45454,10.82055 -5.04303,5.20087 -5.83385,6.44438 -6.59096,10.36383 -0.47317,2.44959 -0.63532,6.14005 -0.36033,8.20102 0.42753,3.20441 1.26345,4.52971 5.7712,9.14957 4.05573,4.1566 5.27129,5.95677 5.27129,7.80648 0,3.37236 -2.47977,5.38995 -6.10449,4.96679 l -2.89879,-0.33841 0.51515,7.86105 c 0.44334,6.76494 0.31994,8.05625 -0.88496,9.26118 -1.88543,1.88544 -4.47856,1.76411 -6.68951,-0.31293 l -1.8235,-1.71309 -1.71305,1.71309 c -2.03058,2.03054 -5.18504,2.22253 -6.98258,0.42496 z m 6.08918,-2.83924 c 0,-1.41297 4.35606,-0.83468 6.10759,0.8108 3.05183,2.86706 4.09567,1.06283 3.86068,-6.67296 -0.11401,-3.7479 -0.36613,-7.36767 -0.56057,-8.04392 -0.19456,-0.67625 -0.009,-1.77777 0.41056,-2.44782 0.61621,-0.98247 1.22628,-1.04378 3.15214,-0.31684 1.49306,0.56354 2.88934,0.62085 3.72554,0.15304 2.55096,-1.4276 1.45281,-4.19524 -3.74577,-9.44041 -5.03822,-5.08343 -5.08624,-5.17603 -5.42282,-10.46192 -0.64279,-10.09476 0.13167,-12.35289 6.48249,-18.90254 5.97558,-6.16267 6.72978,-7.9565 3.96691,-9.43515 -1.46911,-0.78623 -2.2322,-0.40619 -5.70277,2.84014 -4.29025,4.01301 -5.94571,4.47995 -8.79852,2.48178 -2.04597,-1.43308 -4.4893,-0.61472 -5.87058,1.9662 -0.43631,0.81526 -1.24302,14.06749 -1.79262,29.4494 -1.06877,29.9109 -0.92341,31.54663 2.63443,29.64251 0.85432,-0.45721 1.55331,-1.18718 1.55331,-1.62215 z m 101.18178,2.72938 c -1.21777,-1.21773 -1.32595,-2.51177 -0.83927,-10.03933 0.44637,-6.90411 0.35308,-8.4358 -0.46394,-7.61877 -1.66448,1.66447 -5.37617,1.22801 -6.79605,-0.79915 -2.14499,-3.0624 -1.48447,-4.79847 3.97844,-10.45708 4.48828,-4.64905 5.33976,-6.01158 5.83954,-9.34453 0.33103,-2.20748 0.18434,-5.89748 -0.33778,-8.49742 -0.81626,-4.06438 -1.58597,-5.27938 -6.65927,-10.51148 -5.9486,-6.13483 -6.61444,-7.75103 -4.46031,-10.82647 2.12749,-3.03739 5.82443,-2.43484 9.95934,1.6233 3.38274,3.31988 3.60939,3.40926 6.237,2.45911 3.90287,-1.4113 5.3029,-1.23685 7.47062,0.93088 2.46515,2.46511 2.76932,5.17088 3.33239,29.64161 0.24909,10.82005 0.66652,22.16925 0.92791,25.22046 0.37155,4.33716 0.18434,5.9916 -0.85786,7.58225 -1.66974,2.54836 -4.75004,2.65707 -6.99547,0.24692 l -1.66556,-1.78775 -1.90293,1.78775 c -2.28366,2.14536 -4.86266,2.29394 -6.7668,0.38977 z m 5.15967,-1.88084 c 0.77204,-0.90167 2.18672,-1.63941 3.14374,-1.63941 0.95703,0 2.40768,0.73774 3.22368,1.63941 1.6603,1.83462 1.98287,1.91598 3.58108,0.90352 1.28201,-0.81213 1.29822,-5.6711 0.12578,-37.7286 -0.65438,-17.89405 -0.90173,-20.24544 -2.32815,-22.13192 -1.59272,-2.10645 -2.28669,-2.2221 -7.33232,-1.22207 -2.34259,0.46428 -3.12903,0.11122 -6.33437,-2.84329 -3.84122,-3.54074 -5.1878,-4.0132 -6.8112,-2.38977 -1.79943,1.79943 -1.02435,3.5408 3.58786,8.06105 6.62441,6.49234 7.25775,7.99717 7.28827,17.31652 l 0.0248,7.91795 -5.57899,5.78 c -4.95058,5.12894 -5.47543,5.97344 -4.65964,7.49773 1.15673,2.16138 3.1005,2.94339 4.3099,1.734 0.51072,-0.51069 1.64886,-0.92853 2.52924,-0.92853 1.52057,0 1.57528,0.44457 1.09266,8.87978 -0.35947,6.28239 -0.22833,9.15961 0.44854,9.83641 1.33856,1.33856 2.0737,1.20246 3.68787,-0.68278 z M 234.5384,383.86265 c -2.65425,-1.27916 -2.92009,-3.27024 -2.46037,-18.42689 l 0.40988,-13.51288 -2.55205,0.54279 c -7.00278,1.48934 -7.41374,1.45985 -9.41482,-0.67569 -1.41948,-1.5149 -1.80649,-2.62544 -1.43324,-4.11261 0.81176,-3.23428 2.50641,-4.33834 8.35212,-5.44135 6.3116,-1.1909 10.50662,-4.23561 11.29973,-8.20124 0.27356,-1.3674 1.40997,-3.39894 2.52556,-4.5145 3.73034,-3.73034 8.69712,-1.96288 10.39332,3.69852 1.44841,4.83434 4.53571,7.26724 11.48502,9.05058 8.65139,2.22015 10.93146,5.41158 6.81039,9.53265 -1.6558,1.6558 -2.6155,1.99684 -4.50836,1.60214 -1.3226,-0.27573 -3.50142,-0.73 -4.84178,-1.00935 l -2.43704,-0.5079 0.42022,10.95909 c 0.23112,6.0275 0.57092,12.18262 0.75504,13.67806 0.67157,5.45433 -3.39714,9.34834 -7.95653,7.61487 -2.90123,-1.10307 -3.4376,-2.1817 -3.91575,-7.87473 -0.35563,-4.23406 -0.64112,-4.91821 -2.05248,-4.91821 -1.28657,0 -1.68524,0.61748 -1.85241,2.86895 -0.49346,6.6461 -1.05697,8.17581 -3.47171,9.42452 -2.74629,1.42016 -3.04606,1.43221 -5.55474,0.22306 z m 4.78499,-2.29924 c 1.27062,-0.68 1.58551,-1.73821 1.58551,-5.32805 0,-3.38657 0.39999,-4.87951 1.63941,-6.11893 1.97295,-1.97295 3.1478,-2.04978 5.55551,-0.36337 1.47029,1.02983 1.8218,2.06825 1.8218,5.38196 0,2.25825 0.38184,4.81937 0.84853,5.69142 1.02277,1.91102 3.48091,2.05716 5.22733,0.31074 1.10146,-1.10146 1.2028,-3.34292 0.74537,-16.48852 l -0.52944,-15.21375 3.61664,0.67148 c 1.98916,0.36929 4.90764,0.68848 6.48559,0.70927 2.64963,0.035 2.86895,-0.15026 2.86895,-2.42131 0,-2.39909 -0.16389,-2.49909 -6.72117,-4.09848 -7.66918,-1.87065 -10.83724,-4.26172 -12.55903,-9.47877 -1.28065,-3.88044 -2.54888,-5.08417 -4.97707,-4.72401 -1.89358,0.28099 -2.05046,0.49079 -4.79601,6.41563 -2.20333,4.75469 -4.44265,6.30162 -11.16057,7.70982 -6.2716,1.31464 -8.17992,2.72374 -7.32721,5.4104 0.61578,1.94014 0.80848,1.94643 9.76286,0.31985 l 3.20686,-0.58254 -0.50787,15.26974 c -0.43472,13.07167 -0.32747,15.4501 0.74528,16.52284 1.47536,1.47537 2.32433,1.55224 4.46873,0.40458 z"
         id="path23"
         sodipodi:nodetypes="sssssssssssssssssssscsssssssssssssssscssccsssssssssssscssscssssssscssssssssssssssssssssssssssssscssscsssssssssccssssssccsscssssssssssscssssssssssssssssscsssssssssscsss" /><path
         style="opacity:1;fill:#2b262c;fill-opacity:1;fill-rule:evenodd;stroke:#2b262c;stroke-width:3.77953;stroke-linecap:round;stroke-linejoin:round;stroke-dasharray:none;stroke-opacity:1;paint-order:stroke markers fill"
         d="m 699.88406,1591.1148 c -4.47669,-11.2889 3.02742,-213.0625 8.28963,-222.8951 0.94243,-1.7609 4.20386,-4.2422 7.24762,-5.514 5.18002,-2.1643 6.07972,-2.0542 14.06179,1.7219 4.69022,2.2189 9.32179,4.0343 10.29237,4.0343 3.77978,0 12.41939,-5.6177 23.52141,-15.2942 13.12249,-11.4375 18.9777,-13.0038 23.3973,-6.2586 2.25818,3.4464 2.27269,4.3285 0.13905,8.4545 -1.3102,2.5337 -8.57147,11.3394 -16.13616,19.5684 -26.13311,28.4279 -28.51703,34.3243 -27.4116,67.8005 0.86646,26.2398 1.20922,27.0441 20.06033,47.075 15.85401,16.8462 20.25796,23.9014 18.72701,30.0013 -1.38412,5.5147 -6.9321,6.8085 -17.90675,4.1757 -12.142,-2.9128 -13.86644,-0.9863 -13.07305,14.6049 0.32595,6.4054 0.59621,20.7303 0.60057,31.8332 0.007,16.7075 -0.44671,20.6413 -2.62968,22.8221 -2.45762,2.4552 -3.12637,2.284 -9.79973,-2.5084 -4.61111,-3.3115 -9.72189,-5.432 -14.34883,-5.9535 -6.66315,-0.751 -7.58204,-0.3909 -12.61332,4.9438 -6.48869,6.88 -10.08088,7.2816 -12.41796,1.3882 z"
         id="path24"
         transform="scale(0.26458333)" /><path
         style="opacity:1;fill:#2b262c;fill-opacity:1;fill-rule:evenodd;stroke:#2b262c;stroke-width:3.77953;stroke-linecap:round;stroke-linejoin:round;stroke-dasharray:none;stroke-opacity:1;paint-order:stroke markers fill"
         d="m 889.64427,1440.9393 -4.58916,-3.9567 0.20542,-33.0697 c 0.11299,-18.1883 0.69426,-44.592 1.29172,-58.6748 l 1.0863,-25.6051 -16.30664,2.9823 c -19.27799,3.5257 -29.43164,4.1205 -31.69533,1.8568 -2.95663,-2.9566 -0.90949,-11.8391 3.48037,-15.1012 2.25532,-1.676 12.05898,-5.1156 21.78593,-7.6437 29.17364,-7.5824 33.71132,-11.0198 45.34464,-34.3495 3.99403,-8.0097 8.86995,-15.6895 10.83537,-17.0661 8.69675,-6.0914 16.59624,-0.908 22.82985,14.9805 8.16476,20.8106 17.8113,28.11 48.30151,36.5491 10.04125,2.7792 19.50695,5.7147 21.03495,6.5232 3.8334,2.0285 3.955,15.2944 0.1535,16.7531 -2.3847,0.9151 -24.13244,-1.1374 -39.10341,-3.6905 l -6.00838,-1.0247 1.09613,55.4812 c 0.60288,30.5146 0.60892,57.4224 0.0134,59.795 -1.50263,5.987 -10.4321,10.2606 -16.07084,7.6914 -5.29407,-2.4121 -6.73756,-6.6294 -8.06569,-23.5642 -1.30054,-16.5831 -3.39685,-21.4374 -10.7681,-24.9353 -7.5839,-3.5988 -9.62656,-3.3056 -16.00852,2.2979 -6.587,5.7834 -8.80431,12.6156 -8.81643,27.166 -0.007,8.7704 -0.63298,11.3258 -3.58083,14.625 -5.40791,6.0523 -10.94883,6.7194 -16.44578,1.98 z"
         id="path25"
         transform="scale(0.26458333)" /><path
         style="opacity:1;fill:#2b262c;fill-opacity:1;fill-rule:evenodd;stroke:#2b262c;stroke-width:3.77953;stroke-linecap:round;stroke-linejoin:round;stroke-dasharray:none;stroke-opacity:1;paint-order:stroke markers fill"
         d="m 1103.1658,1591.9756 c -1.3681,-2.5561 -1.5834,-11.7217 -0.7957,-33.8615 0.5941,-16.6962 0.6222,-31.5501 0.062,-33.0087 -1.2703,-3.3104 -8.4841,-3.4931 -12.6779,-0.321 -4.9073,3.7117 -11.1545,2.9761 -14.873,-1.7512 -5.9199,-7.5259 -4.6156,-10.1185 16.554,-32.9066 l 19.8443,-21.3615 -0.049,-19.5914 c -0.062,-25.0135 -2.1318,-40.7884 -6.4643,-49.2808 -1.888,-3.7007 -9.2636,-12.8224 -16.3902,-20.2705 -21.9075,-22.8953 -25.3496,-29.4532 -18.6444,-35.5214 5.6044,-5.0719 10.1445,-3.3523 25.5233,9.6677 5.5934,4.7354 11.7517,9.2114 13.6852,9.9465 2.0125,0.7651 8.2385,0.6055 14.5633,-0.3735 25.4311,-3.9364 27.5146,0.9465 30.6363,71.797 0.9041,20.519 2.1,63.7565 2.6575,96.0835 0.9377,54.3626 0.808,58.982 -1.7273,61.5173 -3.6688,3.6688 -7.7249,3.4564 -11.3928,-0.5966 -8.2162,-9.0788 -18.9693,-9.6414 -26.8601,-1.4053 -5.4048,5.6414 -11.0224,6.1509 -13.6516,1.238 z"
         id="path26"
         transform="scale(0.26458333)" /><path
         style="opacity:1;fill:#2b262c;fill-opacity:1;fill-rule:evenodd;stroke:#2b262c;stroke-width:3.77953;stroke-linecap:round;stroke-linejoin:round;stroke-dasharray:none;stroke-opacity:1;paint-order:stroke markers fill"
         d="m 889.05134,1690.7836 c -2.95666,-1.8695 -4.48307,-31.0428 -4.66362,-89.133 l -0.12638,-40.6624 -9.12837,-4.0081 c -5.02061,-2.2044 -13.05754,-5.2475 -17.85986,-6.7624 -17.7526,-5.6001 -23.09681,-11.5098 -17.19419,-19.0138 3.87036,-4.9204 8.84559,-5.0812 25.1319,-0.8126 6.54862,1.7163 16.08799,3.1329 21.19862,3.1478 8.69713,0.025 9.65109,-0.3539 14.90017,-5.926 3.08447,-3.2744 8.28141,-10.5969 11.54876,-16.2724 3.36702,-5.8486 8.04655,-11.5617 10.80171,-13.1874 4.42387,-2.6105 5.27745,-2.6532 9.49052,-0.4745 4.14615,2.144 11.43736,14.7585 11.43736,19.7877 0,3.123 8.44543,11.5067 13.87799,13.7766 7.65301,3.1976 14.18962,2.9766 34.97171,-1.1824 20.04344,-4.0112 23.05534,-3.4168 23.87014,4.711 0.6862,6.8446 -3.3749,9.9764 -19.85428,15.3115 -17.08622,5.5315 -25.04763,9.4369 -26.87219,13.1819 -0.76255,1.5652 -1.40326,28.2069 -1.4238,59.2036 -0.0433,65.2856 0.0144,64.0917 -3.25114,67.3572 -6.33594,6.336 -14.9122,-0.094 -19.03341,-14.2708 -3.76728,-12.959 -7.86542,-16.5729 -18.79353,-16.5729 -11.2134,0 -15.3652,3.6262 -19.82616,17.3163 -1.82309,5.5948 -4.50584,11.4886 -5.96166,13.0973 -2.83497,3.1326 -9.39366,3.82 -13.24029,1.3878 z"
         id="path27"
         transform="scale(0.26458333)" /></g></g></svg>
